<?xml version="1.0" standalone="no"?>
<!DOCTYPE svg PUBLIC "-//W3C//DTD SVG 20010904//EN"
 "http://www.w3.org/TR/2001/REC-SVG-20010904/DTD/svg10.dtd">
<svg version="1.0" xmlns="http://www.w3.org/2000/svg"
 width="1500.000000pt" height="1500.000000pt" viewBox="0 0 1500.000000 1500.000000"
 preserveAspectRatio="xMidYMid meet">

<g transform="translate(0.000000,1500.000000) scale(0.100000,-0.100000)"
fill="#000000" stroke="none">
<path d="M5755 7735 c-94 -38 -165 -130 -165 -214 0 -20 5 -21 90 -21 64 0 92
4 94 13 15 56 26 74 56 95 48 33 123 27 156 -12 23 -25 41 -103 31 -129 -4
-10 -35 -16 -114 -19 -216 -11 -328 -88 -341 -234 -8 -92 31 -164 112 -207 55
-29 188 -31 259 -3 40 15 51 25 64 59 14 34 18 37 24 21 4 -10 8 -34 8 -51 l1
-33 93 0 94 0 -4 153 c-10 447 -9 429 -33 481 -17 34 -37 57 -69 77 -62 40
-101 49 -206 49 -72 0 -102 -5 -150 -25z m264 -425 c6 -47 -18 -126 -49 -155
-47 -45 -147 -48 -190 -5 -24 24 -26 79 -5 120 21 41 103 69 195 66 40 -1 45
-4 49 -26z"/>
<path d="M6675 7745 c-39 -14 -71 -43 -107 -95 -17 -25 -17 -25 -17 33 l-1 57
-95 0 -95 0 0 -370 0 -370 94 0 93 0 5 228 c6 244 13 282 63 348 70 92 224 56
246 -56 4 -25 8 -152 9 -282 l0 -238 96 0 95 0 -3 298 c-3 285 -4 299 -25 339
-27 51 -82 96 -132 112 -52 15 -177 13 -226 -4z"/>
<path d="M7405 7747 c-128 -43 -215 -141 -244 -275 -32 -151 5 -306 95 -395
126 -125 369 -129 507 -8 37 33 81 109 92 159 l7 32 -97 0 c-82 0 -96 -2 -101
-17 -27 -89 -78 -128 -160 -121 -105 9 -149 85 -149 258 0 90 3 112 23 152 42
85 114 115 197 84 46 -18 77 -55 90 -108 l7 -28 95 0 95 0 -7 37 c-17 92 -84
176 -174 216 -57 26 -215 34 -276 14z"/>
<path d="M8150 7751 c-112 -35 -200 -131 -200 -221 l0 -30 89 0 89 0 7 30 c17
75 88 114 166 91 52 -16 69 -43 69 -112 l0 -56 -107 -6 c-229 -12 -342 -94
-343 -249 0 -93 32 -147 115 -191 33 -18 56 -22 130 -21 110 0 159 20 191 78
l22 38 7 -51 7 -51 93 0 93 0 -4 83 c-2 45 -6 172 -8 282 -3 110 -10 217 -16
238 -17 57 -72 113 -136 137 -42 15 -77 20 -147 19 -51 0 -103 -4 -117 -8z
m220 -471 c0 -107 -49 -160 -148 -160 -71 0 -102 29 -102 96 0 38 5 51 31 75
17 16 47 31 67 34 20 4 44 8 52 10 8 1 34 3 58 4 l42 1 0 -60z"/>
<path d="M9017 7737 c-32 -15 -57 -36 -77 -67 l-30 -45 0 58 0 57 -95 0 -95 0
0 -370 0 -370 94 0 94 0 5 233 c5 258 10 289 67 348 43 46 96 59 154 38 84
-30 94 -75 95 -426 l1 -193 95 0 95 0 0 253 c0 138 -5 279 -10 312 -13 80 -50
132 -119 168 -74 37 -200 39 -274 4z"/>
<path d="M9750 7751 c-112 -35 -200 -131 -200 -221 l0 -30 89 0 89 0 7 30 c17
75 88 114 166 91 52 -16 69 -43 69 -112 l0 -56 -107 -6 c-229 -12 -342 -94
-343 -249 0 -93 32 -147 115 -191 33 -18 56 -22 130 -21 110 0 159 20 191 78
l22 38 7 -51 7 -51 93 0 93 0 -4 83 c-2 45 -6 172 -8 282 -3 110 -10 217 -16
238 -17 57 -72 113 -136 137 -42 15 -77 20 -147 19 -51 0 -103 -4 -117 -8z
m220 -471 c0 -107 -49 -160 -148 -160 -71 0 -102 29 -102 96 0 38 5 51 31 75
17 16 47 31 67 34 20 4 44 8 52 10 8 1 34 3 58 4 l42 1 0 -60z"/>
<path d="M4837 7523 c46 -120 111 -285 143 -368 l58 -150 109 -3 109 -3 139
362 c77 199 142 365 143 370 2 5 -43 9 -100 9 l-105 0 -88 -290 c-48 -159 -91
-287 -95 -285 -3 2 -46 132 -95 289 l-89 286 -107 0 -107 0 85 -217z"/>
<path d="M5121 6694 c-12 -15 -21 -37 -21 -49 0 -72 98 -103 142 -45 l22 30
2236 0 2236 0 22 -30 c31 -41 90 -43 121 -4 12 15 21 37 21 49 0 12 -9 34 -21
49 -28 36 -89 37 -117 1 l-20 -25 -2242 0 -2242 0 -20 25 c-28 36 -89 35 -117
-1z m94 -49 c0 -28 -3 -30 -35 -30 -26 0 -36 5 -38 18 -7 34 6 48 40 45 29 -3
33 -6 33 -33z m4640 0 c0 -28 -3 -30 -35 -30 -26 0 -36 5 -38 18 -7 34 6 48
40 45 29 -3 33 -6 33 -33z"/>
</g>
</svg>
